<?xml version="1.0" encoding="UTF-8"?>
<svg xmlns="http://www.w3.org/2000/svg" xmlns:xlink="http://www.w3.org/1999/xlink" width="20px" height="21px" viewBox="0 0 20 21" version="1.1">
<g id="surface1">
<path style=" stroke:none;fill-rule:nonzero;fill:rgb(89.803922%,35.686275%,17.647059%);fill-opacity:1;" d="M 11.386719 3.226562 L 11.386719 6.453125 L 17.078125 9.679688 L 17.078125 6.453125 Z M 0 6.453125 L 0 9.679688 L 2.847656 11.292969 L 2.847656 8.066406 Z M 8.539062 8.066406 L 5.691406 9.679688 L 5.691406 19.359375 L 8.539062 20.972656 L 8.539062 14.519531 L 11.386719 16.132812 L 11.386719 12.90625 L 8.539062 11.292969 Z M 8.539062 8.066406 "/>
<path style=" stroke:none;fill-rule:nonzero;fill:rgb(92.941176%,55.686275%,14.117647%);fill-opacity:1;" d="M 11.386719 3.226562 L 2.847656 8.066406 L 2.847656 11.292969 L 8.539062 8.066406 L 8.539062 11.292969 L 11.386719 9.679688 Z M 19.921875 4.839844 L 17.078125 6.453125 L 17.078125 9.679688 L 19.921875 8.066406 Z M 14.230469 11.292969 L 11.386719 12.90625 L 11.386719 16.132812 L 14.230469 14.519531 Z M 11.386719 16.132812 L 8.539062 14.519531 L 8.539062 20.972656 L 11.386719 19.359375 Z M 11.386719 16.132812 "/>
<path style=" stroke:none;fill-rule:nonzero;fill:rgb(97.254902%,74.901961%,23.529412%);fill-opacity:1;" d="M 11.386719 0 L 0 6.453125 L 2.847656 8.066406 L 11.386719 3.226562 L 17.078125 6.453125 L 19.921875 4.839844 Z M 11.386719 9.679688 L 8.539062 11.292969 L 11.386719 12.90625 L 14.230469 11.292969 Z M 11.386719 9.679688 "/>
</g>
</svg>
